<svg width="299" height="61" viewBox="0 0 299 61" fill="none" xmlns="http://www.w3.org/2000/svg">
<g filter="url(#filter0_d_1_2)">
<path d="M12.845 41.165C12.4783 41.165 12.2217 41.0367 12.075 40.78C11.9283 40.5233 11.855 40.2483 11.855 39.955C11.8917 39.3317 12.0383 38.9833 12.295 38.91C12.5517 38.8367 12.8633 38.8 13.23 38.8C14.4033 38.8 15.2283 38.5983 15.705 38.195C16.1817 37.755 16.475 37.2233 16.585 36.6C16.7317 35.94 16.805 35.2617 16.805 34.565V8.33H13.01C11.7633 8.36666 10.7917 8.64166 10.095 9.155C9.39833 9.63166 8.885 10.4017 8.555 11.465C8.225 12.4917 7.93167 13.83 7.675 15.48C7.63833 15.81 7.4 16.0667 6.96 16.25C6.55667 16.3967 6.15333 16.47 5.75 16.47C5.49333 16.47 5.2 16.3783 4.87 16.195C4.57667 16.0117 4.43 15.7367 4.43 15.37L4.595 7.615C4.595 7.10166 4.74167 6.75333 5.035 6.57C5.32833 6.38666 5.67667 6.295 6.08 6.295H32.975C33.3783 6.295 33.7083 6.38666 33.965 6.57C34.2583 6.75333 34.405 7.10166 34.405 7.615L34.625 15.37C34.625 15.7367 34.46 16.0117 34.13 16.195C33.8367 16.3783 33.5433 16.47 33.25 16.47C32.8833 16.47 32.4983 16.3967 32.095 16.25C31.6917 16.0667 31.4533 15.81 31.38 15.48C31.1233 13.83 30.8117 12.4917 30.445 11.465C30.115 10.4017 29.6017 9.63166 28.905 9.155C28.245 8.64166 27.2733 8.36666 25.99 8.33H22.25V34.565C22.2867 35.2617 22.36 35.94 22.47 36.6C22.58 37.2233 22.8733 37.755 23.35 38.195C23.8633 38.5983 24.6883 38.8 25.825 38.8C26.1917 38.8 26.5033 38.8367 26.76 38.91C27.0167 38.9833 27.1633 39.3317 27.2 39.955C27.2 40.2483 27.1267 40.5233 26.98 40.78C26.8333 41.0367 26.5767 41.165 26.21 41.165C25.0367 41.0917 23.9183 41.0367 22.855 41C21.8283 41 20.7833 41 19.72 41C17.52 41 15.2283 41.055 12.845 41.165ZM48.6315 41.66C46.0649 41.66 43.8099 41.055 41.8665 39.845C39.9599 38.635 38.4749 37.0583 37.4115 35.115C36.3482 33.1717 35.8165 31.1 35.8165 28.9C35.8165 26.7367 36.2015 24.8117 36.9715 23.125C37.7415 21.4383 38.7499 20.0267 39.9965 18.89C41.2799 17.7533 42.6732 16.8917 44.1765 16.305C45.6799 15.7183 47.1649 15.425 48.6315 15.425C51.1982 15.425 53.4349 16.03 55.3415 17.24C57.2849 18.45 58.7882 20.0267 59.8515 21.97C60.9149 23.9133 61.4465 25.985 61.4465 28.185C61.4465 30.3483 61.0432 32.2733 60.2365 33.96C59.4665 35.6467 58.4399 37.0583 57.1565 38.195C55.9099 39.3317 54.5349 40.1933 53.0315 40.78C51.5282 41.3667 50.0615 41.66 48.6315 41.66ZM48.6315 39.625C50.4282 39.625 51.8399 39.0933 52.8665 38.03C53.9299 36.9667 54.6815 35.5733 55.1215 33.85C55.5982 32.09 55.8365 30.2017 55.8365 28.185C55.8365 26.2417 55.5982 24.4633 55.1215 22.85C54.6449 21.2367 53.8749 19.935 52.8115 18.945C51.7482 17.955 50.3549 17.46 48.6315 17.46C46.8349 17.46 45.4049 17.9917 44.3415 19.055C43.2782 20.0817 42.5265 21.4567 42.0865 23.18C41.6465 24.8667 41.4265 26.7367 41.4265 28.79C41.4265 30.6967 41.6465 32.475 42.0865 34.125C42.5632 35.775 43.3332 37.1133 44.3965 38.14C45.4599 39.13 46.8715 39.625 48.6315 39.625ZM65.5161 52.44C65.2594 52.44 65.0394 52.3117 64.8561 52.055C64.7094 51.835 64.6361 51.5967 64.6361 51.34C64.6728 50.79 64.8011 50.4783 65.0211 50.405C65.2778 50.3683 65.5711 50.35 65.9011 50.35C66.8911 50.35 67.5694 50.1667 67.9361 49.8C68.3394 49.47 68.5778 49.0117 68.6511 48.425C68.7244 47.8383 68.7611 47.2333 68.7611 46.61V22.74C68.7611 22.08 68.7244 21.475 68.6511 20.925C68.6144 20.3383 68.4128 19.88 68.0461 19.55C67.6794 19.1833 66.9828 19 65.9561 19C65.6261 19 65.3144 18.9633 65.0211 18.89C64.7644 18.78 64.6361 18.45 64.6361 17.9C64.6361 17.35 64.9294 17.02 65.5161 16.91C67.2028 16.6533 68.4861 16.3967 69.3661 16.14C70.2828 15.8833 70.9611 15.6633 71.4011 15.48C71.8778 15.2967 72.2994 15.1867 72.6661 15.15C72.9594 15.1133 73.1978 15.1683 73.3811 15.315C73.6011 15.4617 73.7111 15.755 73.7111 16.195V18.835H73.8761C74.9028 17.8817 76.1311 17.075 77.5611 16.415C78.9911 15.755 80.3661 15.425 81.6861 15.425C83.9228 15.425 85.9028 15.975 87.6261 17.075C89.3494 18.175 90.7061 19.715 91.6961 21.695C92.6861 23.6383 93.1811 25.9117 93.1811 28.515C93.1811 31.155 92.5761 33.465 91.3661 35.445C90.1561 37.425 88.5978 38.965 86.6911 40.065C84.7844 41.1283 82.7494 41.66 80.5861 41.66C78.9361 41.66 77.5978 41.4767 76.5711 41.11C75.5811 40.78 74.7194 40.395 73.9861 39.955H73.7661V46.61C73.7661 47.2333 73.8028 47.8383 73.8761 48.425C73.9494 49.0117 74.1878 49.47 74.5911 49.8C74.9944 50.1667 75.6728 50.35 76.6261 50.35C76.9561 50.35 77.2311 50.3683 77.4511 50.405C77.7078 50.4783 77.8544 50.79 77.8911 51.34C77.8911 51.5967 77.8178 51.835 77.6711 52.055C77.5244 52.3117 77.3044 52.44 77.0111 52.44C75.9478 52.3667 74.9578 52.3117 74.0411 52.275C73.1611 52.275 72.2261 52.275 71.2361 52.275C70.2461 52.275 69.3111 52.275 68.4311 52.275C67.5511 52.3117 66.5794 52.3667 65.5161 52.44ZM80.1461 39.79C81.5761 39.79 82.7678 39.4417 83.7211 38.745C84.6744 38.0117 85.4261 37.095 85.9761 35.995C86.5628 34.8583 86.9661 33.6483 87.1861 32.365C87.4428 31.045 87.5711 29.8167 87.5711 28.68C87.5711 26.9567 87.2961 25.3067 86.7461 23.73C86.2328 22.1167 85.3894 20.7967 84.2161 19.77C83.0794 18.7067 81.5761 18.175 79.7061 18.175C78.3128 18.175 77.1578 18.4683 76.2411 19.055C75.3244 19.605 74.4994 20.265 73.7661 21.035V35.775C74.1694 36.7283 74.9028 37.645 75.9661 38.525C77.0661 39.3683 78.4594 39.79 80.1461 39.79Z" fill="#F40000"/>
<path d="M98.7902 41.165C98.4602 41.165 98.2219 41.0367 98.0752 40.78C97.9286 40.5233 97.8552 40.2483 97.8552 39.955C97.8919 39.3317 98.0386 38.9833 98.2952 38.91C98.5519 38.8367 98.8636 38.8 99.2302 38.8C100.404 38.8 101.229 38.5983 101.705 38.195C102.182 37.755 102.475 37.2233 102.585 36.6C102.732 35.94 102.805 35.2617 102.805 34.565V12.73C102.805 12.0333 102.732 11.3733 102.585 10.75C102.475 10.09 102.182 9.55833 101.705 9.155C101.229 8.715 100.404 8.495 99.2302 8.495C98.8636 8.495 98.5519 8.45833 98.2952 8.385C98.0386 8.31166 97.8919 7.96333 97.8552 7.34C97.8552 7.04667 97.9286 6.77167 98.0752 6.515C98.2219 6.25833 98.4602 6.13 98.7902 6.13C100 6.16667 101.119 6.20333 102.145 6.24C103.172 6.27666 104.235 6.295 105.335 6.295C107.572 6.295 109.864 6.24 112.21 6.13C112.577 6.13 112.834 6.25833 112.98 6.515C113.127 6.77167 113.2 7.04667 113.2 7.34C113.164 7.96333 113.017 8.31166 112.76 8.385C112.504 8.45833 112.192 8.495 111.825 8.495C110.689 8.495 109.864 8.715 109.35 9.155C108.874 9.55833 108.58 10.09 108.47 10.75C108.36 11.3733 108.287 12.0333 108.25 12.73V35.39C108.287 35.8667 108.36 36.38 108.47 36.93C108.58 37.48 108.892 37.9383 109.405 38.305C109.955 38.6717 110.854 38.8367 112.1 38.8H117.05C118.334 38.7633 119.305 38.5617 119.965 38.195C120.662 37.7917 121.212 37.1317 121.615 36.215C122.019 35.2983 122.459 34.0333 122.935 32.42C123.082 32.0533 123.32 31.815 123.65 31.705C124.017 31.595 124.402 31.5767 124.805 31.65C125.099 31.6867 125.392 31.815 125.685 32.035C126.015 32.255 126.162 32.5483 126.125 32.915L125.025 39.845C124.915 40.3583 124.732 40.6883 124.475 40.835C124.255 40.945 123.907 41 123.43 41H105.39C104.29 41 103.209 41 102.145 41C101.119 41.0367 100 41.0917 98.7902 41.165ZM136.151 41.66C133.914 41.66 132.118 41.0183 130.761 39.735C129.441 38.4517 128.781 36.9117 128.781 35.115C128.781 33.245 129.258 31.7783 130.211 30.715C131.201 29.6517 132.484 28.8633 134.061 28.35C135.674 27.8367 137.416 27.4883 139.286 27.305C141.193 27.1217 143.044 26.975 144.841 26.865V22.52C144.841 20.7967 144.401 19.4583 143.521 18.505C142.678 17.515 141.229 17.02 139.176 17.02C138.149 17.02 137.178 17.35 136.261 18.01C135.381 18.67 134.941 19.6233 134.941 20.87C134.941 21.4567 135.088 21.9517 135.381 22.355C135.674 22.7583 135.968 23.07 136.261 23.29C136.554 23.51 136.701 23.6567 136.701 23.73C136.701 23.8767 136.481 24.1517 136.041 24.555C135.638 24.9217 135.069 25.105 134.336 25.105C133.199 25.105 132.319 24.6833 131.696 23.84C131.073 22.9967 130.761 22.0617 130.761 21.035C130.761 19.6417 131.183 18.5417 132.026 17.735C132.906 16.9283 134.024 16.3417 135.381 15.975C136.738 15.6083 138.113 15.425 139.506 15.425C141.156 15.425 142.751 15.6267 144.291 16.03C145.868 16.4333 147.151 17.2033 148.141 18.34C149.168 19.4767 149.681 21.1817 149.681 23.455V36.27C149.718 36.6367 149.809 37.0767 149.956 37.59C150.103 38.1033 150.378 38.5617 150.781 38.965C151.221 39.3317 151.808 39.515 152.541 39.515C152.798 39.515 152.999 39.57 153.146 39.68C153.293 39.7533 153.366 39.9917 153.366 40.395C153.366 40.725 153.183 40.9817 152.816 41.165C152.449 41.3483 152.028 41.4767 151.551 41.55C151.074 41.6233 150.671 41.66 150.341 41.66C148.984 41.66 147.774 41.275 146.711 40.505C145.648 39.6983 145.024 38.5983 144.841 37.205C144.034 38.6717 142.824 39.79 141.211 40.56C139.634 41.2933 137.948 41.66 136.151 41.66ZM137.911 38.69C139.158 38.69 140.294 38.3783 141.321 37.755C142.384 37.1317 143.228 36.2883 143.851 35.225C144.511 34.125 144.841 32.915 144.841 31.595V28.46C141.064 28.7167 138.369 29.3217 136.756 30.275C135.143 31.2283 134.336 32.7867 134.336 34.95C134.336 37.4433 135.528 38.69 137.911 38.69ZM156.891 41.165C156.635 41.165 156.415 41.055 156.231 40.835C156.085 40.5783 156.011 40.3217 156.011 40.065C156.085 39.515 156.231 39.2217 156.451 39.185C156.671 39.1117 156.965 39.075 157.331 39.075C158.358 39.075 159.055 38.91 159.421 38.58C159.788 38.2133 159.99 37.7367 160.026 37.15C160.1 36.5633 160.136 35.9583 160.136 35.335V22.74C160.136 22.08 160.1 21.475 160.026 20.925C159.99 20.3383 159.788 19.88 159.421 19.55C159.055 19.1833 158.358 19 157.331 19C157.001 19 156.69 18.9633 156.396 18.89C156.14 18.78 156.011 18.45 156.011 17.9C156.011 17.35 156.305 17.02 156.891 16.91C158.578 16.6533 159.861 16.3967 160.741 16.14C161.658 15.8833 162.336 15.6633 162.776 15.48C163.253 15.2967 163.675 15.1867 164.041 15.15C164.335 15.1133 164.573 15.1683 164.756 15.315C164.976 15.4617 165.086 15.755 165.086 16.195V19.66H165.251C165.985 18.9633 166.736 18.3033 167.506 17.68C168.276 17.02 169.175 16.4883 170.201 16.085C171.265 15.645 172.566 15.425 174.106 15.425C176.6 15.425 178.58 16.1767 180.046 17.68C181.513 19.1833 182.246 21.1633 182.246 23.62V35.335C182.246 35.9583 182.265 36.5633 182.301 37.15C182.375 37.7367 182.595 38.2133 182.961 38.58C183.365 38.91 184.08 39.075 185.106 39.075C185.436 39.075 185.711 39.1117 185.931 39.185C186.188 39.2217 186.335 39.515 186.371 40.065C186.371 40.3217 186.298 40.5783 186.151 40.835C186.005 41.055 185.785 41.165 185.491 41.165C184.428 41.0917 183.438 41.0367 182.521 41C181.641 41 180.706 41 179.716 41C178.726 41 177.791 41 176.911 41C176.031 41.0367 175.06 41.0917 173.996 41.165C173.74 41.165 173.52 41.055 173.336 40.835C173.19 40.5783 173.116 40.3217 173.116 40.065C173.153 39.515 173.281 39.2217 173.501 39.185C173.758 39.1117 174.051 39.075 174.381 39.075C175.408 39.075 176.105 38.91 176.471 38.58C176.875 38.2133 177.095 37.7367 177.131 37.15C177.205 36.5633 177.241 35.9583 177.241 35.335V23.675C177.241 22.465 176.966 21.475 176.416 20.705C175.903 19.935 175.243 19.3667 174.436 19C173.63 18.6333 172.805 18.45 171.961 18.45C170.715 18.45 169.615 18.6883 168.661 19.165C167.708 19.605 166.938 20.1183 166.351 20.705C165.765 21.2917 165.361 21.805 165.141 22.245V35.335C165.141 35.9583 165.16 36.5633 165.196 37.15C165.27 37.7367 165.49 38.2133 165.856 38.58C166.26 38.91 166.975 39.075 168.001 39.075C168.331 39.075 168.606 39.1117 168.826 39.185C169.083 39.2217 169.23 39.515 169.266 40.065C169.266 40.3217 169.193 40.5783 169.046 40.835C168.9 41.055 168.68 41.165 168.386 41.165C167.323 41.0917 166.333 41.0367 165.416 41C164.536 41 163.601 41 162.611 41C161.621 41 160.686 41 159.806 41C158.926 41.0367 157.955 41.0917 156.891 41.165ZM201.151 41.66C197.375 41.66 194.423 40.4683 192.296 38.085C190.206 35.665 189.161 32.475 189.161 28.515C189.271 25.985 189.895 23.7483 191.031 21.805C192.205 19.8617 193.745 18.34 195.651 17.24C197.595 16.1033 199.74 15.4983 202.086 15.425C203.37 15.425 204.671 15.59 205.991 15.92C207.348 16.2133 208.466 16.7817 209.346 17.625C210.263 18.4317 210.721 19.605 210.721 21.145C210.721 22.2083 210.391 23.1983 209.731 24.115C209.071 24.995 208.155 25.435 206.981 25.435C206.175 25.435 205.551 25.2333 205.111 24.83C204.671 24.4267 204.451 24.1333 204.451 23.95C204.451 23.8767 204.598 23.73 204.891 23.51C205.221 23.2533 205.533 22.9233 205.826 22.52C206.12 22.08 206.266 21.5483 206.266 20.925C206.266 19.7517 205.845 18.89 205.001 18.34C204.158 17.79 203.205 17.4967 202.141 17.46C200.528 17.46 199.226 17.79 198.236 18.45C197.283 19.11 196.55 19.99 196.036 21.09C195.523 22.1533 195.175 23.3267 194.991 24.61C194.845 25.8933 194.771 27.14 194.771 28.35C194.771 30.3667 195.083 32.1817 195.706 33.795C196.33 35.3717 197.21 36.6183 198.346 37.535C199.483 38.4517 200.84 38.91 202.416 38.91C204.03 38.91 205.386 38.5617 206.486 37.865C207.586 37.1683 208.595 36.1417 209.511 34.785C209.768 34.4183 210.153 34.3817 210.666 34.675C210.923 34.8217 211.106 35.0233 211.216 35.28C211.326 35.5367 211.29 35.7933 211.106 36.05C209.896 37.7733 208.393 39.1483 206.596 40.175C204.8 41.165 202.985 41.66 201.151 41.66ZM215.155 41.165C214.861 41.165 214.641 41.055 214.495 40.835C214.348 40.5783 214.275 40.3217 214.275 40.065C214.311 39.515 214.44 39.2217 214.66 39.185C214.916 39.1117 215.21 39.075 215.54 39.075C216.566 39.075 217.263 38.91 217.63 38.58C218.033 38.2133 218.253 37.7367 218.29 37.15C218.363 36.5633 218.4 35.9583 218.4 35.335V8.495C218.4 7.835 218.363 7.23 218.29 6.68C218.253 6.09333 218.051 5.635 217.685 5.305C217.318 4.93833 216.621 4.755 215.595 4.755C215.265 4.755 214.953 4.71833 214.66 4.645C214.403 4.535 214.275 4.205 214.275 3.655C214.275 3.105 214.568 2.775 215.155 2.665C216.841 2.40833 218.125 2.15166 219.005 1.895C219.921 1.63833 220.618 1.41833 221.095 1.235C221.571 1.015 221.993 0.904998 222.36 0.904998C222.653 0.904998 222.891 0.978332 223.075 1.125C223.295 1.235 223.405 1.51 223.405 1.95V19.66H223.515C224.248 18.9633 225 18.3033 225.77 17.68C226.54 17.02 227.438 16.4883 228.465 16.085C229.528 15.645 230.83 15.425 232.37 15.425C234.863 15.425 236.843 16.1767 238.31 17.68C239.776 19.1833 240.51 21.1633 240.51 23.62V35.335C240.51 35.9583 240.528 36.5633 240.565 37.15C240.638 37.7367 240.858 38.2133 241.225 38.58C241.628 38.91 242.325 39.075 243.315 39.075C243.681 39.075 243.975 39.1117 244.195 39.185C244.415 39.2217 244.543 39.515 244.58 40.065C244.58 40.3217 244.506 40.5783 244.36 40.835C244.25 41.055 244.048 41.165 243.755 41.165C242.691 41.0917 241.701 41.0367 240.785 41C239.868 41 238.933 41 237.98 41C236.99 41 236.055 41 235.175 41C234.295 41.0367 233.323 41.0917 232.26 41.165C231.966 41.165 231.746 41.055 231.6 40.835C231.453 40.5783 231.38 40.3217 231.38 40.065C231.416 39.515 231.545 39.2217 231.765 39.185C231.985 39.1117 232.278 39.075 232.645 39.075C233.671 39.075 234.368 38.91 234.735 38.58C235.138 38.2133 235.358 37.7367 235.395 37.15C235.431 36.5633 235.45 35.9583 235.45 35.335V23.675C235.45 21.8417 234.9 20.5217 233.8 19.715C232.7 18.8717 231.508 18.45 230.225 18.45C228.978 18.45 227.878 18.6883 226.925 19.165C225.971 19.605 225.201 20.1183 224.615 20.705C224.028 21.2917 223.625 21.805 223.405 22.245V35.335C223.405 35.9583 223.423 36.5633 223.46 37.15C223.533 37.7367 223.753 38.2133 224.12 38.58C224.523 38.91 225.22 39.075 226.21 39.075C226.576 39.075 226.87 39.1117 227.09 39.185C227.31 39.2217 227.438 39.515 227.475 40.065C227.475 40.3217 227.401 40.5783 227.255 40.835C227.145 41.055 226.943 41.165 226.65 41.165C225.586 41.0917 224.596 41.0367 223.68 41C222.763 41 221.828 41 220.875 41C219.885 41 218.95 41 218.07 41C217.19 41.0367 216.218 41.0917 215.155 41.165ZM260.308 41.66C257.484 41.66 255.101 41.055 253.158 39.845C251.251 38.635 249.821 37.0217 248.868 35.005C247.914 32.9883 247.438 30.7883 247.438 28.405C247.438 26.7917 247.713 25.2333 248.263 23.73C248.849 22.19 249.674 20.7967 250.738 19.55C251.801 18.2667 253.084 17.2583 254.588 16.525C256.091 15.7917 257.796 15.425 259.703 15.425C263.076 15.425 265.606 16.305 267.293 18.065C269.016 19.7883 270.006 21.9883 270.263 24.665C270.263 25.9483 269.896 26.7917 269.163 27.195C268.466 27.5983 267.549 27.8 266.413 27.8H253.048C253.048 29.9267 253.341 31.8333 253.928 33.52C254.514 35.17 255.431 36.49 256.678 37.48C257.961 38.4333 259.648 38.91 261.738 38.91C263.278 38.91 264.598 38.58 265.698 37.92C266.798 37.26 267.861 36.105 268.888 34.455C269.181 34.0883 269.584 34.07 270.098 34.4C270.391 34.5467 270.574 34.785 270.648 35.115C270.721 35.4083 270.684 35.665 270.538 35.885C269.401 37.6817 267.971 39.0933 266.248 40.12C264.524 41.1467 262.544 41.66 260.308 41.66ZM253.048 25.71H262.013C262.893 25.71 263.589 25.545 264.103 25.215C264.653 24.8483 264.946 24.2433 264.983 23.4C264.983 21.8233 264.543 20.43 263.663 19.22C262.819 17.9733 261.499 17.35 259.703 17.35C257.869 17.35 256.329 18.0833 255.083 19.55C253.873 21.0167 253.194 23.07 253.048 25.71ZM284.78 41.66C281.957 41.66 279.592 41.165 277.685 40.175C275.815 39.1483 274.88 37.6817 274.88 35.775C274.88 34.7117 275.192 33.85 275.815 33.19C276.475 32.53 277.318 32.2 278.345 32.2C279.005 32.2 279.537 32.3833 279.94 32.75C280.38 33.08 280.6 33.3183 280.6 33.465C280.6 33.575 280.38 33.8317 279.94 34.235C279.537 34.6017 279.335 35.2067 279.335 36.05C279.335 37.0767 279.812 37.9383 280.765 38.635C281.755 39.295 283.24 39.625 285.22 39.625C286.943 39.625 288.282 39.2583 289.235 38.525C290.225 37.755 290.72 36.6917 290.72 35.335C290.72 34.235 290.353 33.3917 289.62 32.805C288.923 32.1817 288.007 31.6867 286.87 31.32C285.77 30.9533 284.578 30.5867 283.295 30.22C282.048 29.8533 280.857 29.395 279.72 28.845C278.583 28.295 277.648 27.5433 276.915 26.59C276.218 25.6 275.87 24.2983 275.87 22.685C275.87 21.035 276.365 19.6783 277.355 18.615C278.345 17.5517 279.61 16.7633 281.15 16.25C282.69 15.7 284.248 15.425 285.825 15.425C287.182 15.425 288.465 15.6267 289.675 16.03C290.885 16.3967 291.875 16.965 292.645 17.735C293.452 18.505 293.855 19.4767 293.855 20.65C293.855 21.5667 293.562 22.3917 292.975 23.125C292.388 23.8583 291.582 24.225 290.555 24.225C289.895 24.225 289.345 24.06 288.905 23.73C288.502 23.3633 288.3 23.1067 288.3 22.96C288.3 22.8867 288.428 22.7583 288.685 22.575C288.978 22.355 289.253 22.08 289.51 21.75C289.767 21.3833 289.895 20.925 289.895 20.375C289.822 19.3117 289.308 18.5233 288.355 18.01C287.402 17.4967 286.338 17.24 285.165 17.24C283.882 17.24 282.69 17.5517 281.59 18.175C280.49 18.7983 279.94 19.6967 279.94 20.87C279.94 21.9333 280.16 22.7583 280.6 23.345C281.077 23.9317 281.81 24.445 282.8 24.885C283.827 25.2883 285.147 25.7467 286.76 26.26C288.373 26.7733 289.785 27.305 290.995 27.855C292.242 28.405 293.195 29.1383 293.855 30.055C294.552 30.935 294.9 32.145 294.9 33.685C294.9 35.225 294.46 36.6 293.58 37.81C292.7 39.02 291.49 39.9733 289.95 40.67C288.447 41.33 286.723 41.66 284.78 41.66Z" fill="#2C33DC"/>
</g>
<defs>
<filter id="filter0_d_1_2" x="0.43" y="0.904999" width="298.47" height="59.535" filterUnits="userSpaceOnUse" color-interpolation-filters="sRGB">
<feFlood flood-opacity="0" result="BackgroundImageFix"/>
<feColorMatrix in="SourceAlpha" type="matrix" values="0 0 0 0 0 0 0 0 0 0 0 0 0 0 0 0 0 0 127 0" result="hardAlpha"/>
<feOffset dy="4"/>
<feGaussianBlur stdDeviation="2"/>
<feComposite in2="hardAlpha" operator="out"/>
<feColorMatrix type="matrix" values="0 0 0 0 0 0 0 0 0 0 0 0 0 0 0 0 0 0 0.25 0"/>
<feBlend mode="normal" in2="BackgroundImageFix" result="effect1_dropShadow_1_2"/>
<feBlend mode="normal" in="SourceGraphic" in2="effect1_dropShadow_1_2" result="shape"/>
</filter>
</defs>
</svg>
